<svg id="ae28c677-05cf-4b0d-8c4f-80c32a099e29" data-name="Layer 1" xmlns="http://www.w3.org/2000/svg" viewBox="0 0 284.22 60.06"><title>doojoo-logotype</title><path d="M.48,0H21.15q12,.08,18,10a17.89,17.89,0,0,1,2.72,7,122.62,122.62,0,0,1,.44,12.6,85.8,85.8,0,0,1-.69,13.3,14.62,14.62,0,0,1-1,3.4,31.13,31.13,0,0,1-1.66,3,20.62,20.62,0,0,1-7.22,6.89,20.41,20.41,0,0,1-11.22,2.92H.48Zm9,50.62h10.7q7.55,0,11-5.15A9.92,9.92,0,0,0,33,40.65a104.39,104.39,0,0,0,.36-10.78c0-5.13-.12-8.81-.36-11a10.05,10.05,0,0,0-2.31-5.39,11.86,11.86,0,0,0-10.54-5H9.43Z" transform="translate(-0.48 0.49)"/><path d="M50.73,29.54a97.59,97.59,0,0,1,.61-13.77,16.28,16.28,0,0,1,2-5.64A20.95,20.95,0,0,1,71.85-.49,20.72,20.72,0,0,1,83.6,2.84a19.81,19.81,0,0,1,6.73,7.29,13.57,13.57,0,0,1,2.06,5.64,113.51,113.51,0,0,1,.53,13.77,113.83,113.83,0,0,1-.53,13.7A13.69,13.69,0,0,1,90.33,49a19.25,19.25,0,0,1-6.73,7.21,21.15,21.15,0,0,1-11.75,3.41,20.82,20.82,0,0,1-11.64-3.41A19.85,19.85,0,0,1,53.32,49c-.43-.89-.82-1.75-1.17-2.56a16.34,16.34,0,0,1-.81-3.16A97.85,97.85,0,0,1,50.73,29.54Zm9,0q0,8.72.65,11.8a9.71,9.71,0,0,0,2.31,5,10.33,10.33,0,0,0,3.73,3,10.51,10.51,0,0,0,5.43,1.34,11.07,11.07,0,0,0,5.55-1.34,9.81,9.81,0,0,0,3.56-3,10.38,10.38,0,0,0,2.4-5,74.51,74.51,0,0,0,.6-11.8,76.2,76.2,0,0,0-.6-11.87,10.32,10.32,0,0,0-2.4-4.9,10.63,10.63,0,0,0-3.56-3,12.89,12.89,0,0,0-5.55-1.26,12.22,12.22,0,0,0-5.43,1.26,11.19,11.19,0,0,0-3.73,3,9.63,9.63,0,0,0-2.31,4.9A69.69,69.69,0,0,0,59.73,29.54Z" transform="translate(-0.48 0.49)"/><path d="M101.35,29.54A97.59,97.59,0,0,1,102,15.77a16.28,16.28,0,0,1,2-5.64A20.95,20.95,0,0,1,122.46-.49a20.73,20.73,0,0,1,11.76,3.33,19.78,19.78,0,0,1,6.72,7.29A13.57,13.57,0,0,1,143,15.77a113.51,113.51,0,0,1,.53,13.77,113.83,113.83,0,0,1-.53,13.7A13.69,13.69,0,0,1,140.94,49a19.22,19.22,0,0,1-6.72,7.21,21.16,21.16,0,0,1-11.76,3.41,20.81,20.81,0,0,1-11.63-3.41A19.85,19.85,0,0,1,103.94,49c-.43-.89-.82-1.75-1.17-2.56a15.64,15.64,0,0,1-.81-3.16A97.85,97.85,0,0,1,101.35,29.54Zm9,0q0,8.72.65,11.8a9.71,9.71,0,0,0,2.31,5,10.29,10.29,0,0,0,3.72,3,10.56,10.56,0,0,0,5.43,1.34A11.08,11.08,0,0,0,128,49.28a9.81,9.81,0,0,0,3.56-3,10.38,10.38,0,0,0,2.39-5,72.9,72.9,0,0,0,.61-11.8A74.56,74.56,0,0,0,134,17.67a10.31,10.31,0,0,0-2.39-4.9,10.63,10.63,0,0,0-3.56-3,12.91,12.91,0,0,0-5.56-1.26A12.28,12.28,0,0,0,117,9.73a11.16,11.16,0,0,0-3.72,3,9.63,9.63,0,0,0-2.31,4.9A69.69,69.69,0,0,0,110.35,29.54Z" transform="translate(-0.48 0.49)"/><path d="M158.29,49.36A8.51,8.51,0,0,0,163,50.62a10.48,10.48,0,0,0,6.81-2.47,8.41,8.41,0,0,0,2.47-3.33,11.71,11.71,0,0,0,.93-5V0h9V40.73q-.17,8.91-5.83,13.78a19.55,19.55,0,0,1-13.1,5.07q-10.29-.26-15.36-7.7l7.22-5.23A9.79,9.79,0,0,0,158.29,49.36Z" transform="translate(-0.48 0.49)"/><path d="M191.89,29.54a97.59,97.59,0,0,1,.61-13.77,16.28,16.28,0,0,1,2-5.64A20.95,20.95,0,0,1,213-.49a20.73,20.73,0,0,1,11.76,3.33,19.78,19.78,0,0,1,6.72,7.29,13.57,13.57,0,0,1,2.07,5.64,113.51,113.51,0,0,1,.53,13.77,113.83,113.83,0,0,1-.53,13.7A13.69,13.69,0,0,1,231.48,49a19.22,19.22,0,0,1-6.72,7.21A21.16,21.16,0,0,1,213,59.58a20.81,20.81,0,0,1-11.63-3.41A19.77,19.77,0,0,1,194.48,49c-.43-.89-.82-1.75-1.17-2.56a15.64,15.64,0,0,1-.81-3.16A97.85,97.85,0,0,1,191.89,29.54Zm9,0a69.55,69.55,0,0,0,.64,11.8,9.87,9.87,0,0,0,2.31,5,10.42,10.42,0,0,0,3.73,3A10.56,10.56,0,0,0,213,50.62a11.08,11.08,0,0,0,5.56-1.34,9.81,9.81,0,0,0,3.56-3,10.38,10.38,0,0,0,2.39-5,72.9,72.9,0,0,0,.61-11.8,74.56,74.56,0,0,0-.61-11.87,10.31,10.31,0,0,0-2.39-4.9,10.63,10.63,0,0,0-3.56-3A12.91,12.91,0,0,0,213,8.47a12.28,12.28,0,0,0-5.43,1.26,11.3,11.3,0,0,0-3.73,3,9.79,9.79,0,0,0-2.31,4.9A71.13,71.13,0,0,0,200.89,29.54Z" transform="translate(-0.48 0.49)"/><path d="M242.51,29.54a97.59,97.59,0,0,1,.61-13.77,16.28,16.28,0,0,1,2-5.64A20.95,20.95,0,0,1,263.62-.49a20.76,20.76,0,0,1,11.76,3.33,19.86,19.86,0,0,1,6.72,7.29,13.57,13.57,0,0,1,2.07,5.64,113.51,113.51,0,0,1,.53,13.77,113.83,113.83,0,0,1-.53,13.7A13.69,13.69,0,0,1,282.1,49a19.3,19.3,0,0,1-6.72,7.21,21.18,21.18,0,0,1-11.76,3.41A20.81,20.81,0,0,1,252,56.17,19.77,19.77,0,0,1,245.1,49c-.43-.89-.82-1.75-1.17-2.56a15.64,15.64,0,0,1-.81-3.16A97.85,97.85,0,0,1,242.51,29.54Zm9,0a69.21,69.21,0,0,0,.65,11.8,9.87,9.87,0,0,0,2.31,5,10.42,10.42,0,0,0,3.73,3,10.56,10.56,0,0,0,5.43,1.34,11,11,0,0,0,5.55-1.34,9.76,9.76,0,0,0,3.57-3,10.38,10.38,0,0,0,2.39-5,72.9,72.9,0,0,0,.61-11.8,74.56,74.56,0,0,0-.61-11.87,10.31,10.31,0,0,0-2.39-4.9,10.57,10.57,0,0,0-3.57-3,12.83,12.83,0,0,0-5.55-1.26,12.28,12.28,0,0,0-5.43,1.26,11.3,11.3,0,0,0-3.73,3,9.79,9.79,0,0,0-2.31,4.9A70.79,70.79,0,0,0,251.5,29.54Z" transform="translate(-0.48 0.49)"/></svg>